<?xml version="1.0" encoding="utf-8"?>
<svg xmlns="http://www.w3.org/2000/svg" fill="none" viewBox="0 0 42 45">
<path d="M14.541 39.2242C16.0924 39.1404 17.6455 39.055 19.1576 38.9729C19.3317 37.2071 19.4443 35.6039 19.6611 34.0157C19.8266 32.8078 20.1321 31.62 20.3676 30.4205C21.32 25.5738 22.2433 20.7205 23.2315 15.8805C23.8186 12.999 24.4808 10.1309 25.1703 7.27113C25.3239 6.63787 25.754 6.07329 26.0322 5.46515C26.307 4.86707 26.5254 4.24218 26.8156 3.65248C26.9572 3.36265 27.1603 3.06947 27.4112 2.86676C28.1058 2.30553 28.78 1.68232 29.5685 1.2836C31.2956 0.405737 33.1099 -0.383331 35.1152 0.20135C36.4482 0.59002 37.4876 1.50306 38.3511 2.5518C40.604 5.28925 41.4676 8.52928 41.8704 11.9536C42.309 15.6912 41.5444 19.3115 40.9214 22.9536C40.5084 25.3627 40.2763 27.8137 39.679 30.1759C39.0884 32.5096 38.1668 34.7662 37.3271 37.0329C37.1599 37.4819 37.1291 37.7717 37.4329 38.1453C37.9262 38.7501 38.3682 39.3967 38.8597 40.0669C39.1806 39.8742 39.4503 39.7134 39.9008 39.4453C39.8667 39.8926 39.8411 40.1691 39.824 40.4455C39.7797 41.129 39.7011 41.8109 39.7046 42.4944C39.7063 43.0724 39.4144 43.3454 38.7846 43.2416C37.5934 43.0439 36.7264 42.3687 36.0283 41.4406C35.8269 41.1726 35.6324 40.9012 35.39 40.5711C35.2415 40.7588 35.0913 40.8861 35.0214 41.0469C33.784 43.843 31.6421 45.2302 28.5223 44.9688C26.8343 44.8264 25.1447 44.6136 23.4858 44.2886C22.2723 44.0507 21.2107 43.3957 20.4564 42.3972C20.0673 41.8829 19.6218 41.8377 19.0569 41.9499C17.0037 42.357 14.9642 42.3821 12.9247 41.8058C12.5527 41.7003 11.9963 41.7556 11.6908 41.9667C8.98736 43.8413 4.36391 43.5398 2.79374 39.8022C2.23395 38.4703 1.70487 37.125 1.16214 35.7848C1.12118 35.6826 1.11435 35.5519 1.04438 35.4782C-0.128128 34.2385 -0.329518 32.4225 0.522125 30.8929C0.622821 30.712 0.651834 30.4674 0.643301 30.2563C0.474338 26.2071 1.45398 22.3221 2.37731 18.427C2.83129 16.5104 3.21359 14.5738 3.72048 12.6706C4.45266 9.92649 5.84874 7.53415 7.86947 5.49028C8.13742 5.22056 8.3098 4.80843 8.40025 4.43149C8.60506 3.58379 9.15632 3.14486 10.0575 3.03429C10.6838 2.95722 11.2812 2.67577 11.9058 2.54342C13.7047 2.16313 15.5035 1.96042 17.1659 3.00581C19.202 4.28406 20.5946 6.06659 21.3063 8.33662C21.4446 8.7789 21.4668 9.26474 21.4924 9.73215C21.675 13.2051 21.9037 16.6746 21.0196 20.1056C19.97 24.1733 19.004 28.2627 17.9254 32.3236C17.2819 34.7444 16.0377 36.8989 14.4778 38.8791C14.5 38.993 14.5205 39.1069 14.5427 39.2208L14.541 39.2242ZM35.0862 34.0375C35.1784 34.0492 35.2723 34.0609 35.3644 34.0726C35.8457 32.3973 36.4431 30.7438 36.781 29.0417C37.3049 26.4031 37.5985 23.7193 38.09 21.074C38.5815 18.4236 38.9451 15.7884 38.8478 13.0727C38.7676 10.796 38.1771 8.66666 37.322 6.61944C36.7588 5.27249 35.9191 3.98921 34.4974 3.27051C34.3199 3.18004 34.0827 3.12643 33.8898 3.15659C33.2566 3.25878 32.6371 3.44474 32.0022 3.5285C31.2496 3.62567 29.9235 4.82519 29.9508 5.48861C29.9968 6.65629 30.0668 7.82398 30.1419 8.99167C30.3382 12.0943 30.5003 15.1987 30.7614 18.2963C30.8894 19.8091 31.0601 21.3454 31.4731 22.8012C32.2821 25.6609 33.2737 28.4704 34.1919 31.3C34.4872 32.213 34.7893 33.1244 35.0879 34.0375H35.0862ZM27.2832 12.4126C27.2252 12.4043 27.1671 12.3959 27.1091 12.3875C26.9572 12.9387 26.7558 13.4815 26.6619 14.0427C26.3889 15.6879 26.225 17.3514 25.8991 18.9849C24.9604 23.669 23.9142 28.333 23.0113 33.0222C22.6495 34.9002 22.4703 36.8218 22.3662 38.7317C22.2808 40.2847 22.8628 41.0419 24.4006 41.3602C25.9127 41.6735 27.476 41.7606 29.0206 41.9147C30.473 42.0605 31.439 41.4054 32.0364 40.1138C32.3521 39.4319 32.8129 38.8137 33.1269 38.1302C33.2481 37.8672 33.2379 37.4701 33.1303 37.1954C32.7771 36.2941 32.2838 35.4414 31.9681 34.5283C31.1301 32.1142 30.2802 29.7001 29.5787 27.2474C28.8875 24.825 28.2082 22.379 27.8259 19.8996C27.447 17.4335 27.447 14.9105 27.2815 12.4126H27.2832ZM8.70917 9.55624C8.62383 9.53112 8.53679 9.50599 8.45146 9.47918C8.08451 10.2096 7.60323 10.9082 7.37111 11.6772C6.77889 13.639 6.23616 15.6208 5.7873 17.6195C5.11486 20.6233 4.39292 23.6271 3.96113 26.6678C3.40474 30.583 3.47472 34.4697 5.4306 38.1285C6.39829 39.9412 7.07585 40.3701 9.14438 39.9111C10.2469 39.6665 10.9961 38.3798 10.6582 37.3579C10.5541 37.0446 10.5131 36.7062 10.4841 36.3745C10.3425 34.6875 10.2025 32.9988 10.0865 31.3101C9.90386 28.6497 9.7366 25.9876 9.57276 23.3272C9.34918 19.665 9.13755 16.0028 8.91397 12.3423C8.85765 11.4125 8.77744 10.4827 8.70917 9.55457V9.55624ZM13.4606 34.5585C14.7799 32.6218 15.3414 30.4406 15.8773 28.2644C16.5156 25.6743 16.9525 23.0324 17.6728 20.4658C18.3827 17.9411 18.7668 15.4148 18.5619 12.808C18.4237 11.0556 18.7053 9.23459 17.5994 7.6397C16.6726 6.30281 15.6384 5.16025 13.8105 5.30432C13.2968 5.34453 12.8104 5.70305 12.2967 5.7466C11.5867 5.80692 11.5611 6.18051 11.6003 6.71158C11.7761 9.12067 11.9434 11.5314 12.097 13.9422C12.2369 16.1084 12.3461 18.2745 12.4878 20.4407C12.696 23.6271 12.9179 26.8135 13.1363 30C13.2405 31.5195 13.3514 33.0406 13.4589 34.5601L13.4606 34.5585Z" fill="currentColor"/>
</svg>
